# xmcd CD database file
#
# Track frame offsets:
#	150
#	13515
#	26262
#	39645
#	51752
#	62220
#	79402
#	91395
#	103470
#	117382
#	131117
#	144580
#	158045
#	177027
#	190165
#	203887
#	217377
#	229410
#	242600
#
# Disc length: 3408 seconds
#
# Revision: 3
# Processed by: cddbd v1.5PL3 Copyright (c) Steve Scherf et al.
# Submitted via: CDex 1.50
#
DISCID=180d4e13
DTITLE=Memphis Slim - Memphis Slim USA
DYEAR=1900
DGENRE=
TTITLE0=Memphis Slim USA
TTITLE1=Sassy Mae
TTITLE2=Little Piece Of Mind
TTITLE3=Got To Find My Baby
TTITLE4=Banana Oil
TTITLE5=Blue And Lonesome
TTITLE6=Two Of A Kind
TTITLE7=She's Allright
TTITLE8=Blues All Around My Head
TTITLE9=Wish Me Well
TTITLE10=Four Years Of Torment
TTITLE11=Got to find my baby - alternate take
TTITLE12=Slim Was Just Kiddin'
TTITLE13=Jive Time Bounce
TTITLE14=Backbone Boogie
TTITLE15=Memphis Slim USA - alternate take
TTITLE16=She's Allright -alternate take
TTITLE17=Blues All Around My Head - alternate take
TTITLE18=Blue And Lonesome - alternate take
EXTD=
EXTT0=
EXTT1=
EXTT2=
EXTT3=
EXTT4=
EXTT5=
EXTT6=
EXTT7=
EXTT8=
EXTT9=
EXTT10=
EXTT11=
EXTT12=
EXTT13=
EXTT14=
EXTT15=
EXTT16=
EXTT17=
EXTT18=
PLAYORDER=
